<svg xmlns="http://www.w3.org/2000/svg" viewBox="0 0 960 540" width="960" height="540" role="img" aria-label="Ilustrație: sos de smântână cu usturoi, servit într-un bol mic">
  <rect width="960" height="540" fill="#f4ecdc"/>
  <ellipse cx="480" cy="352" rx="308" ry="132" fill="#e8dcc3" opacity=".55"/>
  <path d="M300 300h360c-8 100-72 158-180 158S308 400 300 300z" fill="#efe6d2"/>
  <ellipse cx="480" cy="300" rx="180" ry="70" fill="#faf5e8" stroke="#e0d2b6" stroke-width="7"/>
  <ellipse cx="480" cy="302" rx="150" ry="54" fill="#f7f2e6" stroke="#ddd2ba" stroke-width="5"/>
  <ellipse cx="428" cy="288" rx="36" ry="13" fill="#ffffff" opacity=".55"/>
  <g fill="#6b8a52" opacity=".9">
    <ellipse cx="432" cy="312" rx="11" ry="5"/><ellipse cx="512" cy="296" rx="9" ry="4"/>
    <ellipse cx="486" cy="322" rx="8" ry="4"/><ellipse cx="548" cy="312" rx="7" ry="3.5"/>
  </g>
  <g>
    <path d="M228 322c0-34 20-58 44-58s44 24 44 58c0 30-20 48-44 48s-44-18-44-48z" fill="#fbf7ee" stroke="#e0d2b6" stroke-width="6"/>
    <path d="M272 264c-12 22-12 84 0 106" fill="none" stroke="#e0d2b6" stroke-width="5"/>
    <path d="M272 264c6-14 14-20 24-22" fill="none" stroke="#c9b48a" stroke-width="6" stroke-linecap="round"/>
  </g>
  <g>
    <path d="M652 344c0-26 15-44 33-44s33 18 33 44c0 23-15 36-33 36s-33-13-33-36z" fill="#fbf7ee" stroke="#e0d2b6" stroke-width="6"/>
    <path d="M685 300c-9 17-9 63 0 80" fill="none" stroke="#e0d2b6" stroke-width="5"/>
    <path d="M685 300c5-11 11-15 19-17" fill="none" stroke="#c9b48a" stroke-width="6" stroke-linecap="round"/>
  </g>
</svg>
