<svg xmlns="http://www.w3.org/2000/svg" viewBox="0 0 600 600" width="600" height="600" role="img" aria-label="Ilustrație: pizza coaptă în cuptor, văzută de sus">
  <defs>
    <radialGradient id="pzGlow" cx="50%" cy="45%" r="60%">
      <stop offset="0%" stop-color="#ffd9a0" stop-opacity=".55"/>
      <stop offset="100%" stop-color="#ffd9a0" stop-opacity="0"/>
    </radialGradient>
    <path id="pzLeaf" d="M0 0C18-27 47-23 53-6 35 17 8 15 0 0Z"/>
  </defs>
  <circle cx="300" cy="300" r="290" fill="url(#pzGlow)"/>
  <circle cx="300" cy="300" r="252" fill="#e2a75a"/>
  <circle cx="300" cy="300" r="252" fill="none" stroke="#c1832f" stroke-width="7"/>
  <g fill="#c98a3c" opacity=".55">
    <circle cx="300" cy="60" r="15"/><circle cx="470" cy="140" r="12"/><circle cx="540" cy="310" r="13"/>
    <circle cx="450" cy="470" r="12"/><circle cx="285" cy="545" r="14"/><circle cx="130" cy="465" r="12"/>
    <circle cx="58" cy="290" r="13"/><circle cx="135" cy="135" r="12"/>
  </g>
  <circle cx="300" cy="300" r="222" fill="#bf4530"/>
  <g fill="#f2d88d">
    <ellipse cx="248" cy="208" rx="63" ry="47"/>
    <ellipse cx="372" cy="248" rx="55" ry="42"/>
    <ellipse cx="208" cy="352" rx="57" ry="44"/>
    <ellipse cx="332" cy="392" rx="64" ry="45"/>
    <ellipse cx="432" cy="352" rx="41" ry="34"/>
    <ellipse cx="286" cy="296" rx="49" ry="35"/>
    <ellipse cx="172" cy="268" rx="35" ry="28"/>
    <ellipse cx="300" cy="466" rx="45" ry="30"/>
    <ellipse cx="392" cy="164" rx="30" ry="24"/>
  </g>
  <g>
    <g fill="#a8342a"><circle cx="232" cy="232" r="35"/><circle cx="372" cy="206" r="32"/><circle cx="182" cy="330" r="31"/><circle cx="300" cy="330" r="35"/><circle cx="420" cy="300" r="30"/><circle cx="262" cy="428" r="33"/><circle cx="392" cy="418" r="29"/></g>
    <g fill="#8d281f" opacity=".75"><circle cx="226" cy="224" r="4.5"/><circle cx="242" cy="240" r="3.5"/><circle cx="366" cy="200" r="4"/><circle cx="378" cy="214" r="3"/><circle cx="176" cy="324" r="4"/><circle cx="294" cy="324" r="4.5"/><circle cx="308" cy="340" r="3.4"/><circle cx="414" cy="296" r="3.8"/><circle cx="256" cy="420" r="4.2"/><circle cx="388" cy="412" r="3.6"/></g>
  </g>
  <g fill="#5b7a4b">
    <use href="#pzLeaf" transform="translate(140 400) rotate(-18)"/>
    <use href="#pzLeaf" transform="translate(430 176) rotate(24)"/>
    <use href="#pzLeaf" transform="translate(300 152) rotate(96)"/>
    <use href="#pzLeaf" transform="translate(196 468) rotate(-52)"/>
  </g>
  <g fill="none" stroke="#2f3b28" stroke-width="7">
    <circle cx="204" cy="192" r="12"/><circle cx="446" cy="404" r="11"/><circle cx="342" cy="272" r="11"/><circle cx="240" cy="360" r="10"/>
  </g>
</svg>
