<svg xmlns="http://www.w3.org/2000/svg" viewBox="0 0 64 64" width="64" height="64" role="img" aria-label="Simbolul OLIZAN">
  <path d="M9 55V29a23 23 0 0 1 46 0v26" fill="none" stroke="#2f4132" stroke-width="3.4" stroke-linecap="round"/>
  <path d="M4.5 55.5h55" fill="none" stroke="#2f4132" stroke-width="3.4" stroke-linecap="round"/>
  <path d="M32 47 21.5 26.5a12 12 0 0 1 21 0z" fill="#a8402c"/>
  <path d="M21.5 26.5a12 12 0 0 1 21 0" fill="none" stroke="#d9a441" stroke-width="4" stroke-linecap="round"/>
  <circle cx="28.2" cy="32.4" r="1.75" fill="#faf5e8"/>
  <circle cx="35.4" cy="34.6" r="1.5" fill="#faf5e8"/>
  <circle cx="31.6" cy="40.2" r="1.35" fill="#faf5e8"/>
  <path d="M13.6 48.6c1.5-4.6 6.4-5.5 8-5 -.6 4.6-5.1 6.6-8 5z" fill="#5b7a4b"/>
  <path d="M14.2 51.8c2.4-2.6 6.4-2.2 7.4-1.2 -2 3.1-6 3.2-7.4 1.2z" fill="#7d9a63"/>
</svg>
